# xmcd
#
# Track frame offsets: 
#        150
#        4027
#        48484
#        68612
#        114073
#        148355
#        169635
#
# Disc length: 2891 seconds
#
# Revision: 2
# Processed by: cddbd v1.5.1PL0 Copyright (c) Steve Scherf et al.
# Submitted via: ExactAudioCopy v0.90b4
#
DISCID=540b4907
DTITLE=Bootsy's Rubber Band - Live in Oklahoma 1976
DYEAR=1976
DGENRE=Funk
TTITLE0=Intro
TTITLE1=Psychoticbumpschool
TTITLE2=Another Point Of View
TTITLE3=I'd Rather Be With You
TTITLE4=The Funk Jam
TTITLE5=Vanish In Our Sleep
TTITLE6=Stretchin' Out (In A Rubber Band)
EXTD=
EXTT0=
EXTT1=
EXTT2=
EXTT3=
EXTT4=
EXTT5=
EXTT6=
PLAYORDER=
